# xmcd
#
# Track frame offsets:
#	150
#	15102
#	34235
#	45915
#	58827
#	76197
#	89681
#	104878
#	119738
#	132725
#	147427
#	170451
#	183090
#	208266
#	223757
#	239100
#	252160
#	265128
#	281141
#
# Disc length: 3915 seconds
#
# Revision: 1
# Processed by: cddbd v1.5.1PL0 Copyright (c) Steve Scherf et al.
# Submitted via: audiograbber 1.83.01
#
DISCID=2a0f4913
DTITLE=Blaf - Pop - Jewki
DYEAR=2005
DGENRE=Bluegrass
TTITLE0=Kyczle
TTITLE1=Orient
TTITLE2=Biograd
TTITLE3=Piesek
TTITLE4=Kolynda II
TTITLE5=Za Olzóm
TTITLE6=Radegast
TTITLE7=Zabki
TTITLE8=Sloneczko
TTITLE9=Dróciorz
TTITLE10=Kaszna
TTITLE11=Opica
TTITLE12=Saddam
TTITLE13=Szpacyrek
TTITLE14=Labradorek
TTITLE15=Mnich
TTITLE16=Zbojnicy
TTITLE17=Zafujane
TTITLE18=Tra ta ta
EXTD=
EXTT0=
EXTT1=
EXTT2=
EXTT3=
EXTT4=
EXTT5=
EXTT6=
EXTT7=
EXTT8=
EXTT9=
EXTT10=
EXTT11=
EXTT12=
EXTT13=
EXTT14=
EXTT15=
EXTT16=
EXTT17=
EXTT18=
PLAYORDER=
